<?xml version="1.0" encoding="utf-8"?>
<!-- Generator: Adobe Illustrator 16.0.4, SVG Export Plug-In . SVG Version: 6.00 Build 0)  -->
<!DOCTYPE svg PUBLIC "-//W3C//DTD SVG 1.1//EN" "http://www.w3.org/Graphics/SVG/1.1/DTD/svg11.dtd">
<svg version="1.1" id="Layer_1" xmlns="http://www.w3.org/2000/svg" xmlns:xlink="http://www.w3.org/1999/xlink" x="0px" y="0px"
	 width="50px" height="50px" viewBox="0 0 50 50" enable-background="new 0 0 50 50" xml:space="preserve">
<path d="M39.291,21.792h-0.725c-1.812-5.435-7.207-9.388-13.566-9.388s-11.757,3.953-13.565,9.388h-0.726
	c-1.505,0-2.729,1.227-2.729,2.729v3.182c0,1.506,1.226,2.73,2.729,2.73h0.647c2.603,10.068,13.239,12.899,13.361,12.933
	l0.275,0.069l0.274-0.066c0.122-0.029,10.801-2.749,13.385-12.936h0.638c1.505,0,2.729-1.227,2.729-2.73v-3.182
	C42.021,23.019,40.796,21.792,39.291,21.792z M34.189,34.745h-7.16c-0.346-0.63-1.016-1.06-1.786-1.06
	c-1.124,0-2.036,0.912-2.036,2.037s0.912,2.034,2.036,2.034c0.896,0,1.655-0.58,1.928-1.385h5.664
	c-3.015,3.142-6.765,4.397-7.828,4.704c-1.86-0.557-11.939-4.085-11.939-15.291c0-0.186,0.007-0.369,0.017-0.552
	c3.087-0.58,6.698-1.549,7.922-3.033c0,0,0.488,2.771-1.304,3.907c0,0,6.354-0.977,7.493-2.932c0,0,0.228,5.063,9.637,4.508
	C36.521,30.6,35.506,32.912,34.189,34.745z M46.096,25.392v1.444c0,1.227-1.103,2.188-2.508,2.188h-1.089v-1.465v-2.892v-0.922
	C42.262,15.222,34.82,8.844,25,8.844c-9.817,0-17.254,6.371-17.498,14.892v0.935v2.891v1.467H6.413
	c-1.406,0-2.509-0.961-2.509-2.188v-1.444c0-0.852,0.53-1.572,1.323-1.938C5.62,13.777,13.985,6.564,24.999,6.564
	c11.013,0,19.38,7.213,19.771,16.891C45.564,23.816,46.096,24.539,46.096,25.392z"/>
</svg>
